<svg width="57" height="19" viewBox="0 0 57 19" fill="none" xmlns="http://www.w3.org/2000/svg">
<path d="M10.056 18.384C8.28 18.384 6.68 18.016 5.256 17.28C3.832 16.528 2.712 15.488 1.896 14.16C1.096 12.816 0.696 11.296 0.696 9.6C0.696 7.904 1.096 6.392 1.896 5.064C2.712 3.72 3.832 2.68 5.256 1.944C6.68 1.192 8.28 0.816 10.056 0.816C11.688 0.816 13.144 1.104 14.424 1.68C15.704 2.256 16.76 3.088 17.592 4.176L14.016 7.368C12.976 6.056 11.752 5.4 10.344 5.4C9.16 5.4 8.208 5.784 7.488 6.552C6.768 7.304 6.408 8.32 6.408 9.6C6.408 10.88 6.768 11.904 7.488 12.672C8.208 13.424 9.16 13.8 10.344 13.8C11.752 13.8 12.976 13.144 14.016 11.832L17.592 15.024C16.76 16.112 15.704 16.944 14.424 17.52C13.144 18.096 11.688 18.384 10.056 18.384ZM34.2274 18L34.1794 10.344L30.5314 16.488H28.0354L24.3874 10.608V18H19.2274V1.2H23.8834L29.3554 10.152L34.6834 1.2H39.3394L39.3874 18H34.2274ZM48.3898 18.384C46.9978 18.384 45.6378 18.232 44.3098 17.928C42.9978 17.608 41.9178 17.184 41.0698 16.656L42.8938 12.528C43.6938 12.992 44.5898 13.368 45.5818 13.656C46.5738 13.928 47.5258 14.064 48.4378 14.064C49.2218 14.064 49.7818 13.992 50.1178 13.848C50.4538 13.688 50.6218 13.456 50.6218 13.152C50.6218 12.8 50.3978 12.536 49.9498 12.36C49.5178 12.184 48.7978 11.992 47.7898 11.784C46.4938 11.512 45.4138 11.224 44.5498 10.92C43.6858 10.6 42.9338 10.088 42.2938 9.384C41.6538 8.664 41.3338 7.696 41.3338 6.48C41.3338 5.424 41.6298 4.464 42.2218 3.6C42.8138 2.736 43.6938 2.056 44.8618 1.56C46.0458 1.064 47.4778 0.816 49.1578 0.816C50.3098 0.816 51.4378 0.943999 52.5418 1.2C53.6618 1.44 54.6458 1.8 55.4938 2.28L53.7898 6.384C52.1418 5.552 50.5818 5.136 49.1098 5.136C47.6538 5.136 46.9258 5.488 46.9258 6.192C46.9258 6.528 47.1418 6.784 47.5738 6.96C48.0058 7.12 48.7178 7.296 49.7098 7.488C50.9898 7.728 52.0698 8.008 52.9498 8.328C53.8298 8.632 54.5898 9.136 55.2298 9.84C55.8858 10.544 56.2138 11.504 56.2138 12.72C56.2138 13.776 55.9178 14.736 55.3258 15.6C54.7338 16.448 53.8458 17.128 52.6618 17.64C51.4938 18.136 50.0698 18.384 48.3898 18.384Z" fill="#007BFF"/>
</svg>
